<svg width="32" height="32" viewBox="0 0 32 32" fill="none" xmlns="http://www.w3.org/2000/svg">
<g clip-path="url(#clip0)">
<path d="M10.8916 8.01467C13.1281 8.01467 15.3645 8.02187 17.601 8.00748C17.8624 8.00748 18.0947 8.06503 18.3198 8.19453C20.3747 9.39597 22.2118 10.8564 23.6786 12.7413C23.8165 12.914 23.9763 13.0003 24.1796 13.0578C25.7044 13.4607 27.2293 13.8564 28.7396 14.2881C29.4948 14.5039 30.1991 14.8492 30.8163 15.3456C31.586 15.9715 32.0434 16.7413 31.9854 17.7629C31.9491 18.4463 32.0217 19.1226 31.9491 19.806C31.8111 21.1082 30.9906 21.6118 29.6763 21.6765C29.001 21.7053 28.3185 21.6909 27.6432 21.6765C27.4326 21.6694 27.3382 21.7341 27.2583 21.9355C26.7283 23.2233 25.5592 24.0003 24.1869 23.9931C22.8145 23.9859 21.66 23.2089 21.1372 21.9068C21.0428 21.6765 20.9121 21.6765 20.7233 21.6765C18.3779 21.6765 16.0326 21.6765 13.6872 21.6765C12.2858 21.6765 10.8844 21.6837 9.47571 21.6693C9.24335 21.6693 9.1417 21.7341 9.06182 21.9499C8.55354 23.2089 7.37723 23.9859 6.01939 23.9859C4.66881 23.9859 3.47798 23.2017 2.9697 21.9499C2.88256 21.7341 2.78817 21.655 2.56307 21.6693C2.18549 21.6909 1.81517 21.6765 1.43759 21.6765C0.537201 21.6622 -0.00738726 21.1226 -0.00738726 20.2377C-0.00738726 18.5686 -0.000126084 16.9068 -0.0146484 15.2377C-0.0146484 14.8636 0.0797468 14.5399 0.275799 14.2233C1.07453 12.9643 1.85147 11.7053 2.64294 10.4463C2.73734 10.2952 2.77364 10.1873 2.67199 10.0003C2.35976 9.41755 2.53402 8.86359 3.06409 8.45352C3.53607 8.12259 4.00078 7.99309 4.57442 8.00028C6.68016 8.03625 8.7859 8.01467 10.8916 8.01467ZM10.9134 9.04345C8.73507 9.04345 6.55672 9.05064 4.37836 9.03625C4.04435 9.03625 3.80473 9.20172 3.64498 9.41755C3.52154 9.57582 3.76116 9.75568 3.87008 9.89956C4.02983 10.1082 4.03709 10.2593 3.89186 10.4967C2.98422 11.914 2.10562 13.3384 1.21249 14.7629C1.11083 14.9211 1.06727 15.0794 1.06727 15.2665C1.07453 16.7053 1.06727 18.1442 1.06727 19.583C1.06727 20.6334 1.06727 20.6334 2.11288 20.6334C2.70103 20.6334 2.69377 20.6334 2.80995 20.0722C3.1004 18.6478 4.47276 17.396 6.25901 17.5039C7.76207 17.5974 9.12717 18.8276 9.2724 20.3096C9.30144 20.583 9.38857 20.6406 9.64998 20.6406C13.3023 20.6334 16.9547 20.6334 20.6071 20.6406C20.854 20.6406 20.9338 20.5686 20.9556 20.3312C21.1517 18.4967 23.0033 17.1801 24.8258 17.5542C26.2708 17.8564 27.2293 18.8852 27.4834 20.4176C27.5052 20.5255 27.4616 20.6478 27.665 20.6406C28.4419 20.619 29.2116 20.6478 29.9885 20.6046C30.5767 20.5758 30.8163 20.3096 30.8962 19.7341C30.9833 19.0866 30.8817 18.4391 30.9325 17.7988C30.9906 17.0722 30.6566 16.5542 30.112 16.137C29.5529 15.7053 28.9066 15.4247 28.2386 15.2377C26.7355 14.8132 25.2252 14.4175 23.7149 14.0075C23.4317 13.9283 23.1776 13.8348 22.9888 13.583C21.6237 11.7557 19.8665 10.36 17.9205 9.18733C17.7607 9.09381 17.5937 9.05064 17.4049 9.05064C15.2411 9.04345 13.0773 9.04345 10.9134 9.04345ZM3.80473 20.7557C3.82651 21.9859 4.81403 22.9787 6.00487 22.9643C7.27557 22.9499 8.26309 21.9643 8.24857 20.7197C8.23405 19.5039 7.22474 18.5255 5.98308 18.5327C4.77773 18.547 3.79021 19.5542 3.80473 20.7557ZM21.9795 20.7557C21.9795 21.9499 22.9815 22.9499 24.1941 22.9643C25.3922 22.9787 26.4596 21.9283 26.4451 20.7485C26.4306 19.547 25.4285 18.5327 24.2377 18.5327C22.9815 18.5327 21.9867 19.5111 21.9795 20.7557Z" fill="#303335"/>
<path d="M3.80467 20.7556C3.78289 19.5542 4.77767 18.547 5.99029 18.5326C7.22469 18.5182 8.24125 19.4967 8.25578 20.7197C8.2703 21.9571 7.28278 22.9427 6.01207 22.9643C4.82124 22.9787 3.82646 21.9859 3.80467 20.7556Z" fill="#FF4F4F"/>
<path d="M21.9794 20.7557C21.9794 19.5111 22.9815 18.5327 24.2377 18.5327C25.4212 18.5327 26.4305 19.5471 26.4451 20.7485C26.4596 21.9284 25.3922 22.9716 24.1941 22.9644C22.9815 22.95 21.9794 21.95 21.9794 20.7557Z" fill="#FF4F4F"/>
<path d="M22.2045 15.0795C21.2025 15.0795 20.2222 15.0795 19.2492 15.0795C16.4827 15.0795 13.709 15.0723 10.9425 15.0867C10.6302 15.0867 10.5721 15.0004 10.5721 14.7126C10.5867 13.2881 10.5794 11.8637 10.5649 10.4392C10.5649 10.1946 10.6157 10.1155 10.8771 10.1155C12.736 10.1299 14.6021 10.1227 16.461 10.1227C16.6643 10.1227 16.8385 10.173 17.0055 10.2666C19.1113 11.4176 20.8758 12.9428 22.1755 14.9716C22.19 14.9788 22.19 15.0076 22.2045 15.0795ZM20.0625 14.0004C20.0262 13.8349 19.8955 13.7414 19.7866 13.6335C18.9806 12.8205 18.0729 12.1227 17.0854 11.5327C16.8313 11.3817 16.5989 11.1874 16.2649 11.1874C14.8127 11.1946 13.3604 11.1946 11.9155 11.1802C11.6541 11.1802 11.596 11.2666 11.6032 11.5112C11.625 12.2162 11.6323 12.9212 11.6105 13.6335C11.596 13.9572 11.6831 14.0507 12.0171 14.0507C14.5658 14.0363 17.1145 14.0435 19.6704 14.0435C19.8011 14.0435 19.9318 14.0723 20.0625 14.0004Z" fill="#303335"/>
<path d="M8.86578 12.6046C8.86578 13.3241 8.85851 14.0435 8.87304 14.7557C8.8803 14.9931 8.82947 15.0795 8.56807 15.0795C7.50794 15.0651 6.44054 15.0723 5.38041 15.0723C5.2134 15.0723 5.08996 15.0363 4.97379 14.8996C4.74869 14.6334 4.50181 14.3816 4.25493 14.1442C4.12423 14.0219 4.12423 13.9212 4.21136 13.7773C4.89391 12.619 5.5692 11.4536 6.24449 10.2809C6.32436 10.1442 6.41876 10.1154 6.56398 10.1154C7.23927 10.1226 7.91456 10.1298 8.58985 10.1154C8.80769 10.1082 8.85125 10.1874 8.85125 10.3816C8.84399 11.1226 8.85125 11.8636 8.85125 12.6046C8.85851 12.6046 8.85851 12.6046 8.86578 12.6046ZM7.82017 12.5903H7.8129C7.8129 12.2449 7.82017 11.8996 7.80564 11.5543C7.79838 11.432 7.9073 11.2018 7.68947 11.209C7.41354 11.2162 7.07226 11.0219 6.86895 11.3528C6.4115 12.101 5.98309 12.8564 5.54016 13.6118C5.37315 13.8924 5.44576 14.0363 5.78704 14.0435C6.37519 14.0579 6.97061 14.0435 7.55876 14.0507C7.75482 14.0507 7.83469 13.9859 7.82743 13.7773C7.80564 13.3816 7.82017 12.9859 7.82017 12.5903Z" fill="#303335"/>
<path d="M20.0625 14.0002C19.9318 14.0722 19.8011 14.0434 19.6704 14.0434C17.1217 14.0434 14.5731 14.0362 12.0171 14.0506C11.6831 14.0506 11.596 13.9642 11.6105 13.6333C11.6396 12.9283 11.625 12.2232 11.6032 11.511C11.596 11.2664 11.6468 11.1729 11.9155 11.1801C13.3677 11.1945 14.8127 11.1873 16.2649 11.1873C16.5917 11.1873 16.8313 11.3815 17.0854 11.5326C18.073 12.1225 18.9733 12.8204 19.7866 13.6333C19.8955 13.7412 20.0262 13.8347 20.0625 14.0002Z" fill="#FF4F4F"/>
<path d="M7.8201 12.5903C7.8201 12.9859 7.81283 13.3816 7.82736 13.7701C7.83462 13.9787 7.75475 14.0435 7.55869 14.0435C6.97054 14.0363 6.37512 14.0507 5.78697 14.0363C5.44569 14.0291 5.37308 13.8852 5.54009 13.6046C5.97576 12.8493 6.41143 12.0939 6.86888 11.3457C7.07219 11.0147 7.41347 11.209 7.68939 11.2018C7.90723 11.2018 7.80557 11.4248 7.80557 11.5471C7.8201 11.8924 7.81283 12.2377 7.81283 12.5831C7.81283 12.5903 7.81283 12.5903 7.8201 12.5903Z" fill="#FF4F4F"/>
</g>
<defs>
<clipPath id="clip0">
<rect width="32" height="32" fill="white"/>
</clipPath>
</defs>
</svg>
