<svg width="24" height="24" viewBox="0 0 24 24" fill="none" xmlns="http://www.w3.org/2000/svg">
<g clip-path="url(#clip0)">
<path fill-rule="evenodd" clip-rule="evenodd" d="M17.149 17.7854C17.0318 17.9026 16.8418 17.9026 16.7247 17.7854L6.21306 7.27377C6.0959 7.15661 6.0959 6.96666 6.21306 6.8495L6.84945 6.21311C6.96661 6.09595 7.15656 6.09595 7.27372 6.21311L17.7853 16.7247C17.9025 16.8419 17.9025 17.0318 17.7853 17.149L17.149 17.7854Z" fill="#303335"/>
<path fill-rule="evenodd" clip-rule="evenodd" d="M6.21065 17.1521C6.09349 17.0349 6.09349 16.8449 6.21065 16.7278L16.722 6.21641C16.8392 6.09926 17.0291 6.09926 17.1463 6.21641L17.7827 6.85281C17.8998 6.96997 17.8998 7.15992 17.7827 7.27707L7.27131 17.7884C7.15415 17.9056 6.9642 17.9056 6.84704 17.7884L6.21065 17.1521Z" fill="#303335"/>
</g>
<defs>
<clipPath id="clip0">
<rect width="24" height="24" fill="white"/>
</clipPath>
</defs>
</svg>
