<svg width="24" height="24" viewBox="0 0 24 24" fill="none" xmlns="http://www.w3.org/2000/svg">
<path d="M17.6875 4.75C18.0703 4.75 18.3711 4.88672 18.6172 5.13281C18.8633 5.40625 19 5.70703 19 6.0625C19 6.41797 18.8633 6.71875 18.6172 6.99219L14.1875 11.4219V17.4648C14.1875 17.8203 14.0508 18.1211 13.832 18.3398C13.6133 18.5859 13.3125 18.7227 12.9844 18.75C12.6562 18.8047 12.3555 18.7227 12.082 18.5039L10.332 17.2188C9.97656 16.918 9.8125 16.5625 9.8125 16.125V11.4219L5.38281 6.99219C5.10938 6.71875 5 6.41797 5 6.0625C5 5.70703 5.10938 5.40625 5.35547 5.13281C5.60156 4.88672 5.92969 4.75 6.3125 4.75H17.6875ZM12.875 10.875L17.6875 6.0625H6.3125L11.125 10.875V16.125L12.875 17.4375V10.875Z" fill="#F1F3F3"/>
</svg>
