<svg width="63" height="27" viewBox="0 0 63 27" fill="none" xmlns="http://www.w3.org/2000/svg">
<circle cx="13.0494" cy="20.9567" r="4.89815" stroke="#303335" stroke-width="1.5"/>
<circle cx="13.0494" cy="20.9567" r="2.6358" fill="#FF4F4F"/>
<circle cx="50.7037" cy="20.9567" r="4.89815" stroke="#303335" stroke-width="1.5"/>
<circle cx="50.7037" cy="20.9567" r="2.6358" fill="#FF4F4F"/>
<line x1="20.9568" y1="21.3364" x2="42.7963" y2="21.3364" stroke="#303335" stroke-width="1.5"/>
<line x1="27" y1="13.25" x2="32" y2="13.25" stroke="#FF4F4F" stroke-width="1.5"/>
<path d="M5.51852 21.1241H3.05633C1.93 21.1241 1.02582 20.1945 1.0571 19.0686L1.33011 9.24028C1.35596 8.30961 2.11786 7.56859 3.04888 7.56859V7.56859C3.42938 7.56859 3.79914 7.44237 4.10023 7.20971L11.4021 1.56736C11.7384 1.30746 12.1474 1.1615 12.5723 1.15158C15.4588 1.08417 27.081 0.838419 30.3704 1.16735C33.679 1.49822 41.058 6.19008 42.7995 7.32348C43.0474 7.48486 43.3173 7.5898 43.6099 7.63358C45.8661 7.97115 56.1419 9.53457 57.4815 10.2044C58.9877 10.9575 60.4938 12.0871 61.2469 13.5933C61.7346 14.5686 61.9065 17.7545 61.967 19.879C61.9985 20.9831 61.1046 21.8772 60 21.8772H58.2346" stroke="#303335" stroke-width="1.5"/>
<path d="M8.15432 9.28397H24.1574M40.1605 9.28397H24.1574M24.1574 3.31078V9.28397" stroke="#303335" stroke-width="1.5"/>
</svg>
