<svg width="24" height="24" viewBox="0 0 24 24" fill="none" xmlns="http://www.w3.org/2000/svg">
<path fill-rule="evenodd" clip-rule="evenodd" d="M12 4.75C10.3408 4.75 8.75058 5.40487 7.57885 6.56899C6.40729 7.73295 5.75 9.31058 5.75 10.9545C5.75 13.3558 7.32223 15.6838 9.04278 17.4881C9.88742 18.3739 10.7346 19.099 11.3716 19.6029C11.6175 19.7974 11.8311 19.9582 12 20.0819C12.1689 19.9582 12.3825 19.7974 12.6284 19.6029C13.2654 19.099 14.1126 18.3739 14.9572 17.4881C16.6778 15.6838 18.25 13.3558 18.25 10.9545C18.25 9.31058 17.5927 7.73295 16.4211 6.56899C15.2494 5.40487 13.6592 4.75 12 4.75ZM12 21C11.5859 21.6253 11.5857 21.6252 11.5854 21.625L11.5833 21.6236L11.5781 21.6201L11.5604 21.6082C11.5453 21.5981 11.5238 21.5834 11.4962 21.5645C11.4411 21.5266 11.3619 21.4713 11.262 21.3996C11.0622 21.2562 10.7793 21.0469 10.4409 20.7792C9.76535 20.2448 8.86258 19.4727 7.95722 18.5233C6.17777 16.6572 4.25 13.9624 4.25 10.9545C4.25 8.90959 5.06771 6.94939 6.52165 5.50488C7.97543 4.06055 9.94614 3.25 12 3.25C14.0539 3.25 16.0246 4.06055 17.4783 5.50488C18.9323 6.94938 19.75 8.90959 19.75 10.9545C19.75 13.9624 17.8222 16.6572 16.0428 18.5233C15.1374 19.4727 14.2346 20.2448 13.5591 20.7792C13.2207 21.0469 12.9378 21.2562 12.738 21.3996C12.6381 21.4713 12.5589 21.5266 12.5038 21.5645C12.4762 21.5834 12.4547 21.5981 12.4396 21.6082L12.4219 21.6201L12.4167 21.6236L12.4151 21.6246C12.4149 21.6248 12.4141 21.6253 12 21ZM12 21L12.4141 21.6253C12.1631 21.7916 11.8365 21.7913 11.5854 21.625L12 21Z" fill="#303335"/>
<path d="M12 14C13.6569 14 15 12.6569 15 11C15 9.34315 13.6569 8 12 8C10.3431 8 9 9.34315 9 11C9 12.6569 10.3431 14 12 14Z" fill="#303335"/>
</svg>
