<svg width="24" height="24" viewBox="0 0 24 24" fill="none" xmlns="http://www.w3.org/2000/svg">
<g clip-path="url(#clip0)">
<path fill-rule="evenodd" clip-rule="evenodd" d="M10.5 16.5C13.8137 16.5 16.5 13.8137 16.5 10.5C16.5 7.18629 13.8137 4.5 10.5 4.5C7.18629 4.5 4.5 7.18629 4.5 10.5C4.5 13.8137 7.18629 16.5 10.5 16.5ZM10.5 18C14.6421 18 18 14.6421 18 10.5C18 6.35786 14.6421 3 10.5 3C6.35786 3 3 6.35786 3 10.5C3 14.6421 6.35786 18 10.5 18Z" fill="#303335"/>
<path fill-rule="evenodd" clip-rule="evenodd" d="M20.4807 20.834C20.3635 20.9511 20.1736 20.9511 20.0564 20.834L16.2833 17.0609C16.1662 16.9437 16.1662 16.7538 16.2833 16.6366L16.9197 16.0002C17.0369 15.8831 17.2268 15.8831 17.344 16.0002L21.1171 19.7733C21.2342 19.8905 21.2342 20.0804 21.1171 20.1976L20.4807 20.834Z" fill="#303335"/>
</g>
<defs>
<clipPath id="clip0">
<rect width="24" height="24" fill="white"/>
</clipPath>
</defs>
</svg>
