<svg width="70" height="27" viewBox="0 0 70 27" fill="none" xmlns="http://www.w3.org/2000/svg">
<circle cx="18.0494" cy="20.9567" r="4.89815" stroke="#303335" stroke-width="1.5"/>
<circle cx="18.0494" cy="20.9567" r="2.6358" fill="#FF4F4F"/>
<circle cx="55.7037" cy="20.9567" r="4.89815" stroke="#303335" stroke-width="1.5"/>
<circle cx="55.7037" cy="20.9567" r="2.6358" fill="#FF4F4F"/>
<line x1="25.9568" y1="21.3364" x2="47.7963" y2="21.3364" stroke="#303335" stroke-width="1.5"/>
<path d="M10.5185 21.1241H3.74013C2.38507 21.1241 1.40549 19.7978 1.66615 18.468C1.84998 17.5303 2 16.4683 2 15.5C2 14.3286 1.86312 12.5135 1.71763 10.9152C1.55514 9.13023 2.94821 7.56859 4.7406 7.56859H7.95311C8.3957 7.56859 8.82579 7.42178 9.17601 7.15116L16.4021 1.56736C16.7384 1.30746 17.1474 1.1615 17.5723 1.15158C20.4588 1.08417 32.081 0.838419 35.3704 1.16735C38.698 1.50011 46.7884 7.36173 48.625 8.72041C48.8754 8.90565 49.1582 9.0318 49.4667 9.07461C54.2669 9.74065 65.7608 8.62092 68.2469 13.5933C68.7346 14.5686 68.9065 17.7545 68.967 19.879C68.9985 20.9831 68.1046 21.8772 67 21.8772H63.2346" stroke="#303335" stroke-width="1.5"/>
<path d="M12 9.02469H28.0031M44.0062 9.02469H28.0031M28.0031 3V9.02469" stroke="#303335" stroke-width="1.5"/>
<path d="M30 13H34" stroke="#FF4F4F" stroke-width="1.5"/>
</svg>
