<svg width="80" height="40" viewBox="0 0 80 40" fill="none" xmlns="http://www.w3.org/2000/svg">
<circle cx="22.0495" cy="27.9567" r="4.89815" stroke="#303335" stroke-width="1.5"/>
<circle cx="22.0495" cy="27.9567" r="2.6358" fill="#FF4F4F"/>
<circle cx="59.7038" cy="27.9567" r="4.89815" stroke="#303335" stroke-width="1.5"/>
<circle cx="59.7038" cy="27.9567" r="2.6358" fill="#FF4F4F"/>
<line x1="29.9569" y1="28.3364" x2="51.7964" y2="28.3364" stroke="#303335" stroke-width="1.5"/>
<path d="M14.5186 28.0621H11.0001C9.89554 28.0621 9.00189 27.1634 8.98748 26.0589C8.93014 21.6638 8.70655 20.3231 8.93013 15.7805C8.97031 14.9641 9.35206 14.2005 9.97457 13.6708L19.3811 5.66684C19.7297 5.37023 20.1603 5.20236 20.6179 5.19177C24.043 5.11248 39.0406 4.79372 42.3705 5.20842C45.684 5.62108 53.0799 11.4809 54.8073 12.8813C55.0504 13.0785 55.3312 13.2183 55.6378 13.281C60.1079 14.1945 66.5852 14.0511 69.0001 15.5C71.5001 17 71.3993 21.3128 71.5001 23.5M67.2347 29H71.0001C72.1047 29 72.9998 28.1052 72.9872 27.0007C72.9768 26.0749 72.9577 24.9681 72.9232 24M72.9232 24C72.9115 23.6721 71.5156 23.837 71.5001 23.5M72.9232 24L71.5001 23.5" stroke="#303335" stroke-width="1.5"/>
<path d="M14.0001 14.9259H24.7501H35.7119M50.0001 14.9259H35.7119M35.7119 9V14.9259M23.2119 9L21.5001 14.9259" stroke="#303335" stroke-width="1.5"/>
<path d="M34.3093 19H43.8353" stroke="#FF4F4F" stroke-width="1.5"/>
</svg>
